<mxfile host="Electron" modified="2023-08-30T07:54:31.370Z" agent="Mozilla/5.0 (Windows NT 10.0; Win64; x64) AppleWebKit/537.36 (KHTML, like Gecko) draw.io/21.2.8 Chrome/112.0.5615.165 Electron/24.2.0 Safari/537.36" etag="pDTh_Rb-tmb68D37-qG-" version="21.2.8" type="device">
  <diagram name="Page-1" id="yNbQjCaS9AH_NCC5VtGU">
    <mxGraphModel dx="1954" dy="526" grid="1" gridSize="10" guides="1" tooltips="1" connect="1" arrows="1" fold="1" page="1" pageScale="1" pageWidth="850" pageHeight="1100" math="0" shadow="0">
      <root>
        <mxCell id="0" />
        <mxCell id="1" parent="0" />
        <mxCell id="4N4hlpwrFXcGlDAMAMJo-1" value="LOCATION" style="ellipse;whiteSpace=wrap;html=1;" vertex="1" parent="1">
          <mxGeometry x="90" y="30" width="120" height="80" as="geometry" />
        </mxCell>
        <mxCell id="4N4hlpwrFXcGlDAMAMJo-4" style="edgeStyle=orthogonalEdgeStyle;rounded=0;orthogonalLoop=1;jettySize=auto;html=1;entryX=0.5;entryY=1;entryDx=0;entryDy=0;" edge="1" parent="1" source="4N4hlpwrFXcGlDAMAMJo-2" target="4N4hlpwrFXcGlDAMAMJo-1">
          <mxGeometry relative="1" as="geometry" />
        </mxCell>
        <mxCell id="4N4hlpwrFXcGlDAMAMJo-17" style="edgeStyle=orthogonalEdgeStyle;rounded=0;orthogonalLoop=1;jettySize=auto;html=1;exitX=1;exitY=1;exitDx=0;exitDy=0;" edge="1" parent="1" source="4N4hlpwrFXcGlDAMAMJo-2" target="4N4hlpwrFXcGlDAMAMJo-19">
          <mxGeometry relative="1" as="geometry">
            <mxPoint x="290" y="360" as="targetPoint" />
          </mxGeometry>
        </mxCell>
        <mxCell id="4N4hlpwrFXcGlDAMAMJo-26" style="edgeStyle=orthogonalEdgeStyle;rounded=0;orthogonalLoop=1;jettySize=auto;html=1;" edge="1" parent="1" source="4N4hlpwrFXcGlDAMAMJo-2" target="4N4hlpwrFXcGlDAMAMJo-25">
          <mxGeometry relative="1" as="geometry" />
        </mxCell>
        <mxCell id="4N4hlpwrFXcGlDAMAMJo-37" style="edgeStyle=orthogonalEdgeStyle;rounded=0;orthogonalLoop=1;jettySize=auto;html=1;exitX=1;exitY=0.5;exitDx=0;exitDy=0;entryX=0;entryY=0.5;entryDx=0;entryDy=0;" edge="1" parent="1" source="4N4hlpwrFXcGlDAMAMJo-2" target="4N4hlpwrFXcGlDAMAMJo-36">
          <mxGeometry relative="1" as="geometry">
            <mxPoint x="240" y="280" as="targetPoint" />
          </mxGeometry>
        </mxCell>
        <mxCell id="4N4hlpwrFXcGlDAMAMJo-39" style="edgeStyle=orthogonalEdgeStyle;rounded=0;orthogonalLoop=1;jettySize=auto;html=1;exitX=1;exitY=0;exitDx=0;exitDy=0;entryX=0.5;entryY=1;entryDx=0;entryDy=0;" edge="1" parent="1" source="4N4hlpwrFXcGlDAMAMJo-2" target="4N4hlpwrFXcGlDAMAMJo-22">
          <mxGeometry relative="1" as="geometry" />
        </mxCell>
        <mxCell id="4N4hlpwrFXcGlDAMAMJo-75" style="edgeStyle=orthogonalEdgeStyle;rounded=0;orthogonalLoop=1;jettySize=auto;html=1;exitX=0.5;exitY=1;exitDx=0;exitDy=0;" edge="1" parent="1" source="4N4hlpwrFXcGlDAMAMJo-2" target="4N4hlpwrFXcGlDAMAMJo-15">
          <mxGeometry relative="1" as="geometry" />
        </mxCell>
        <mxCell id="4N4hlpwrFXcGlDAMAMJo-78" style="edgeStyle=orthogonalEdgeStyle;rounded=0;orthogonalLoop=1;jettySize=auto;html=1;exitX=1;exitY=0.75;exitDx=0;exitDy=0;entryX=0.5;entryY=0;entryDx=0;entryDy=0;" edge="1" parent="1" source="4N4hlpwrFXcGlDAMAMJo-2" target="4N4hlpwrFXcGlDAMAMJo-77">
          <mxGeometry relative="1" as="geometry">
            <Array as="points">
              <mxPoint x="200" y="250" />
              <mxPoint x="415" y="250" />
            </Array>
          </mxGeometry>
        </mxCell>
        <mxCell id="4N4hlpwrFXcGlDAMAMJo-2" value="STUDENT" style="rounded=0;whiteSpace=wrap;html=1;" vertex="1" parent="1">
          <mxGeometry x="80" y="210" width="120" height="40" as="geometry" />
        </mxCell>
        <mxCell id="4N4hlpwrFXcGlDAMAMJo-27" style="edgeStyle=orthogonalEdgeStyle;rounded=0;orthogonalLoop=1;jettySize=auto;html=1;exitX=0.5;exitY=0;exitDx=0;exitDy=0;entryX=0.5;entryY=1;entryDx=0;entryDy=0;" edge="1" parent="1" source="4N4hlpwrFXcGlDAMAMJo-7" target="4N4hlpwrFXcGlDAMAMJo-40">
          <mxGeometry relative="1" as="geometry">
            <mxPoint x="550" y="160" as="targetPoint" />
          </mxGeometry>
        </mxCell>
        <mxCell id="4N4hlpwrFXcGlDAMAMJo-43" style="edgeStyle=orthogonalEdgeStyle;rounded=0;orthogonalLoop=1;jettySize=auto;html=1;exitX=0.75;exitY=1;exitDx=0;exitDy=0;" edge="1" parent="1" source="4N4hlpwrFXcGlDAMAMJo-7" target="4N4hlpwrFXcGlDAMAMJo-35">
          <mxGeometry relative="1" as="geometry" />
        </mxCell>
        <mxCell id="4N4hlpwrFXcGlDAMAMJo-72" style="edgeStyle=orthogonalEdgeStyle;rounded=0;orthogonalLoop=1;jettySize=auto;html=1;exitX=1;exitY=0.5;exitDx=0;exitDy=0;entryX=0;entryY=0.5;entryDx=0;entryDy=0;" edge="1" parent="1" source="4N4hlpwrFXcGlDAMAMJo-7" target="4N4hlpwrFXcGlDAMAMJo-42">
          <mxGeometry relative="1" as="geometry" />
        </mxCell>
        <mxCell id="4N4hlpwrFXcGlDAMAMJo-73" style="edgeStyle=orthogonalEdgeStyle;rounded=0;orthogonalLoop=1;jettySize=auto;html=1;exitX=1;exitY=0;exitDx=0;exitDy=0;entryX=0.5;entryY=1;entryDx=0;entryDy=0;" edge="1" parent="1" source="4N4hlpwrFXcGlDAMAMJo-7" target="4N4hlpwrFXcGlDAMAMJo-34">
          <mxGeometry relative="1" as="geometry" />
        </mxCell>
        <mxCell id="4N4hlpwrFXcGlDAMAMJo-84" style="edgeStyle=orthogonalEdgeStyle;rounded=0;orthogonalLoop=1;jettySize=auto;html=1;exitX=0.5;exitY=1;exitDx=0;exitDy=0;" edge="1" parent="1" source="4N4hlpwrFXcGlDAMAMJo-7" target="4N4hlpwrFXcGlDAMAMJo-83">
          <mxGeometry relative="1" as="geometry" />
        </mxCell>
        <mxCell id="4N4hlpwrFXcGlDAMAMJo-97" style="edgeStyle=orthogonalEdgeStyle;rounded=0;orthogonalLoop=1;jettySize=auto;html=1;exitX=0;exitY=0.5;exitDx=0;exitDy=0;entryX=1;entryY=0.5;entryDx=0;entryDy=0;" edge="1" parent="1" source="4N4hlpwrFXcGlDAMAMJo-7" target="4N4hlpwrFXcGlDAMAMJo-96">
          <mxGeometry relative="1" as="geometry" />
        </mxCell>
        <mxCell id="4N4hlpwrFXcGlDAMAMJo-7" value="TEACHERS" style="rounded=0;whiteSpace=wrap;html=1;" vertex="1" parent="1">
          <mxGeometry x="630" y="220" width="120" height="50" as="geometry" />
        </mxCell>
        <mxCell id="4N4hlpwrFXcGlDAMAMJo-44" style="edgeStyle=orthogonalEdgeStyle;rounded=0;orthogonalLoop=1;jettySize=auto;html=1;exitX=1;exitY=0.25;exitDx=0;exitDy=0;entryX=0;entryY=0.5;entryDx=0;entryDy=0;entryPerimeter=0;" edge="1" parent="1" source="4N4hlpwrFXcGlDAMAMJo-10" target="4N4hlpwrFXcGlDAMAMJo-45">
          <mxGeometry relative="1" as="geometry">
            <mxPoint x="670" y="630" as="targetPoint" />
          </mxGeometry>
        </mxCell>
        <mxCell id="4N4hlpwrFXcGlDAMAMJo-46" style="edgeStyle=orthogonalEdgeStyle;rounded=0;orthogonalLoop=1;jettySize=auto;html=1;exitX=1;exitY=1;exitDx=0;exitDy=0;entryX=0.417;entryY=-0.037;entryDx=0;entryDy=0;entryPerimeter=0;" edge="1" parent="1" source="4N4hlpwrFXcGlDAMAMJo-10" target="4N4hlpwrFXcGlDAMAMJo-47">
          <mxGeometry relative="1" as="geometry">
            <mxPoint x="620" y="740" as="targetPoint" />
          </mxGeometry>
        </mxCell>
        <mxCell id="4N4hlpwrFXcGlDAMAMJo-48" style="edgeStyle=orthogonalEdgeStyle;rounded=0;orthogonalLoop=1;jettySize=auto;html=1;exitX=0;exitY=1;exitDx=0;exitDy=0;entryX=0.608;entryY=0.038;entryDx=0;entryDy=0;entryPerimeter=0;" edge="1" parent="1" source="4N4hlpwrFXcGlDAMAMJo-10" target="4N4hlpwrFXcGlDAMAMJo-50">
          <mxGeometry relative="1" as="geometry">
            <mxPoint x="380" y="710" as="targetPoint" />
          </mxGeometry>
        </mxCell>
        <mxCell id="4N4hlpwrFXcGlDAMAMJo-53" style="edgeStyle=orthogonalEdgeStyle;rounded=0;orthogonalLoop=1;jettySize=auto;html=1;exitX=0;exitY=0.5;exitDx=0;exitDy=0;" edge="1" parent="1" source="4N4hlpwrFXcGlDAMAMJo-10" target="4N4hlpwrFXcGlDAMAMJo-52">
          <mxGeometry relative="1" as="geometry" />
        </mxCell>
        <mxCell id="4N4hlpwrFXcGlDAMAMJo-54" style="edgeStyle=orthogonalEdgeStyle;rounded=0;orthogonalLoop=1;jettySize=auto;html=1;exitX=0;exitY=0;exitDx=0;exitDy=0;entryX=0.5;entryY=1;entryDx=0;entryDy=0;" edge="1" parent="1" source="4N4hlpwrFXcGlDAMAMJo-10" target="4N4hlpwrFXcGlDAMAMJo-55">
          <mxGeometry relative="1" as="geometry">
            <mxPoint x="370" y="600" as="targetPoint" />
          </mxGeometry>
        </mxCell>
        <mxCell id="4N4hlpwrFXcGlDAMAMJo-92" style="edgeStyle=orthogonalEdgeStyle;rounded=0;orthogonalLoop=1;jettySize=auto;html=1;exitX=0.5;exitY=1;exitDx=0;exitDy=0;entryX=0.5;entryY=0;entryDx=0;entryDy=0;" edge="1" parent="1" source="4N4hlpwrFXcGlDAMAMJo-10" target="4N4hlpwrFXcGlDAMAMJo-91">
          <mxGeometry relative="1" as="geometry" />
        </mxCell>
        <mxCell id="4N4hlpwrFXcGlDAMAMJo-10" value="COURSE" style="rounded=0;whiteSpace=wrap;html=1;" vertex="1" parent="1">
          <mxGeometry x="425" y="670" width="120" height="50" as="geometry" />
        </mxCell>
        <mxCell id="4N4hlpwrFXcGlDAMAMJo-56" style="edgeStyle=orthogonalEdgeStyle;rounded=0;orthogonalLoop=1;jettySize=auto;html=1;exitX=1;exitY=0.25;exitDx=0;exitDy=0;entryX=0;entryY=0.5;entryDx=0;entryDy=0;" edge="1" parent="1" source="4N4hlpwrFXcGlDAMAMJo-12" target="4N4hlpwrFXcGlDAMAMJo-58">
          <mxGeometry relative="1" as="geometry">
            <mxPoint x="650" y="1070" as="targetPoint" />
          </mxGeometry>
        </mxCell>
        <mxCell id="4N4hlpwrFXcGlDAMAMJo-59" style="edgeStyle=orthogonalEdgeStyle;rounded=0;orthogonalLoop=1;jettySize=auto;html=1;exitX=0.5;exitY=1;exitDx=0;exitDy=0;entryX=0.5;entryY=0;entryDx=0;entryDy=0;" edge="1" parent="1" source="4N4hlpwrFXcGlDAMAMJo-12" target="4N4hlpwrFXcGlDAMAMJo-61">
          <mxGeometry relative="1" as="geometry">
            <mxPoint x="530" y="1150" as="targetPoint" />
          </mxGeometry>
        </mxCell>
        <mxCell id="4N4hlpwrFXcGlDAMAMJo-62" style="edgeStyle=orthogonalEdgeStyle;rounded=0;orthogonalLoop=1;jettySize=auto;html=1;exitX=0;exitY=1;exitDx=0;exitDy=0;entryX=0.5;entryY=0;entryDx=0;entryDy=0;" edge="1" parent="1" source="4N4hlpwrFXcGlDAMAMJo-12" target="4N4hlpwrFXcGlDAMAMJo-63">
          <mxGeometry relative="1" as="geometry">
            <mxPoint x="400" y="1150" as="targetPoint" />
          </mxGeometry>
        </mxCell>
        <mxCell id="4N4hlpwrFXcGlDAMAMJo-68" style="edgeStyle=orthogonalEdgeStyle;rounded=0;orthogonalLoop=1;jettySize=auto;html=1;exitX=0;exitY=0.5;exitDx=0;exitDy=0;entryX=1;entryY=0.5;entryDx=0;entryDy=0;" edge="1" parent="1" source="4N4hlpwrFXcGlDAMAMJo-12" target="4N4hlpwrFXcGlDAMAMJo-66">
          <mxGeometry relative="1" as="geometry" />
        </mxCell>
        <mxCell id="4N4hlpwrFXcGlDAMAMJo-69" style="edgeStyle=orthogonalEdgeStyle;rounded=0;orthogonalLoop=1;jettySize=auto;html=1;exitX=1;exitY=1;exitDx=0;exitDy=0;entryX=0.45;entryY=-0.062;entryDx=0;entryDy=0;entryPerimeter=0;" edge="1" parent="1" source="4N4hlpwrFXcGlDAMAMJo-12" target="4N4hlpwrFXcGlDAMAMJo-71">
          <mxGeometry relative="1" as="geometry">
            <mxPoint x="680" y="1170" as="targetPoint" />
          </mxGeometry>
        </mxCell>
        <mxCell id="4N4hlpwrFXcGlDAMAMJo-12" value="CLASSROOM" style="rounded=0;whiteSpace=wrap;html=1;" vertex="1" parent="1">
          <mxGeometry x="470" y="1050" width="120" height="50" as="geometry" />
        </mxCell>
        <mxCell id="4N4hlpwrFXcGlDAMAMJo-15" value="DATE OF BIRTH" style="ellipse;whiteSpace=wrap;html=1;" vertex="1" parent="1">
          <mxGeometry x="10" y="385" width="120" height="80" as="geometry" />
        </mxCell>
        <mxCell id="4N4hlpwrFXcGlDAMAMJo-19" value="LAST NAME" style="ellipse;whiteSpace=wrap;html=1;" vertex="1" parent="1">
          <mxGeometry x="190" y="410" width="120" height="80" as="geometry" />
        </mxCell>
        <mxCell id="4N4hlpwrFXcGlDAMAMJo-22" value="SEX" style="ellipse;whiteSpace=wrap;html=1;" vertex="1" parent="1">
          <mxGeometry x="200" width="120" height="80" as="geometry" />
        </mxCell>
        <mxCell id="4N4hlpwrFXcGlDAMAMJo-25" value="GRADE" style="ellipse;whiteSpace=wrap;html=1;" vertex="1" parent="1">
          <mxGeometry x="-80" y="230" width="120" height="80" as="geometry" />
        </mxCell>
        <mxCell id="4N4hlpwrFXcGlDAMAMJo-34" value="LAST NAME" style="ellipse;whiteSpace=wrap;html=1;" vertex="1" parent="1">
          <mxGeometry x="780" y="70" width="120" height="80" as="geometry" />
        </mxCell>
        <mxCell id="4N4hlpwrFXcGlDAMAMJo-35" value="LOCATION" style="ellipse;whiteSpace=wrap;html=1;" vertex="1" parent="1">
          <mxGeometry x="700" y="310" width="120" height="80" as="geometry" />
        </mxCell>
        <mxCell id="4N4hlpwrFXcGlDAMAMJo-36" value="FIRST NAME" style="ellipse;whiteSpace=wrap;html=1;" vertex="1" parent="1">
          <mxGeometry x="360" y="10" width="90" height="80" as="geometry" />
        </mxCell>
        <mxCell id="4N4hlpwrFXcGlDAMAMJo-40" value="FIRST NAME" style="ellipse;whiteSpace=wrap;html=1;" vertex="1" parent="1">
          <mxGeometry x="580" y="60" width="120" height="80" as="geometry" />
        </mxCell>
        <mxCell id="4N4hlpwrFXcGlDAMAMJo-42" value="SUBJECT TAUGHT" style="ellipse;whiteSpace=wrap;html=1;" vertex="1" parent="1">
          <mxGeometry x="870" y="250" width="120" height="80" as="geometry" />
        </mxCell>
        <mxCell id="4N4hlpwrFXcGlDAMAMJo-45" value="DURATION" style="ellipse;whiteSpace=wrap;html=1;" vertex="1" parent="1">
          <mxGeometry x="700" y="580" width="120" height="80" as="geometry" />
        </mxCell>
        <mxCell id="4N4hlpwrFXcGlDAMAMJo-47" value="END DATE" style="ellipse;whiteSpace=wrap;html=1;" vertex="1" parent="1">
          <mxGeometry x="650" y="730" width="120" height="80" as="geometry" />
        </mxCell>
        <mxCell id="4N4hlpwrFXcGlDAMAMJo-50" value="START DATE" style="ellipse;whiteSpace=wrap;html=1;" vertex="1" parent="1">
          <mxGeometry x="340" y="780" width="120" height="80" as="geometry" />
        </mxCell>
        <mxCell id="4N4hlpwrFXcGlDAMAMJo-52" value="COURSE ID" style="ellipse;whiteSpace=wrap;html=1;" vertex="1" parent="1">
          <mxGeometry x="160" y="690" width="120" height="80" as="geometry" />
        </mxCell>
        <mxCell id="4N4hlpwrFXcGlDAMAMJo-55" value="COURSE NAME" style="ellipse;whiteSpace=wrap;html=1;" vertex="1" parent="1">
          <mxGeometry x="230" y="580" width="120" height="80" as="geometry" />
        </mxCell>
        <mxCell id="4N4hlpwrFXcGlDAMAMJo-58" value="CAPACITY" style="ellipse;whiteSpace=wrap;html=1;" vertex="1" parent="1">
          <mxGeometry x="670" y="1035" width="120" height="80" as="geometry" />
        </mxCell>
        <mxCell id="4N4hlpwrFXcGlDAMAMJo-61" value="ROOM NUMBER" style="ellipse;whiteSpace=wrap;html=1;" vertex="1" parent="1">
          <mxGeometry x="470" y="1150" width="120" height="80" as="geometry" />
        </mxCell>
        <mxCell id="4N4hlpwrFXcGlDAMAMJo-63" value="FLOOR" style="ellipse;whiteSpace=wrap;html=1;" vertex="1" parent="1">
          <mxGeometry x="260" y="1150" width="120" height="80" as="geometry" />
        </mxCell>
        <mxCell id="4N4hlpwrFXcGlDAMAMJo-66" value="BUILDING" style="ellipse;whiteSpace=wrap;html=1;" vertex="1" parent="1">
          <mxGeometry x="190" y="990" width="120" height="80" as="geometry" />
        </mxCell>
        <mxCell id="4N4hlpwrFXcGlDAMAMJo-71" value="AVAILABILITY" style="ellipse;whiteSpace=wrap;html=1;" vertex="1" parent="1">
          <mxGeometry x="680" y="1190" width="120" height="80" as="geometry" />
        </mxCell>
        <mxCell id="4N4hlpwrFXcGlDAMAMJo-74" value="" style="edgeStyle=orthogonalEdgeStyle;rounded=0;orthogonalLoop=1;jettySize=auto;html=1;exitX=0;exitY=1;exitDx=0;exitDy=0;" edge="1" parent="1" source="4N4hlpwrFXcGlDAMAMJo-7" target="4N4hlpwrFXcGlDAMAMJo-33">
          <mxGeometry relative="1" as="geometry">
            <mxPoint x="470" y="340" as="targetPoint" />
            <mxPoint x="640" y="355" as="sourcePoint" />
          </mxGeometry>
        </mxCell>
        <mxCell id="4N4hlpwrFXcGlDAMAMJo-33" value="YEARS OF EXPERIENCE" style="ellipse;whiteSpace=wrap;html=1;" vertex="1" parent="1">
          <mxGeometry x="520" y="300" width="120" height="80" as="geometry" />
        </mxCell>
        <mxCell id="4N4hlpwrFXcGlDAMAMJo-79" style="edgeStyle=orthogonalEdgeStyle;rounded=0;orthogonalLoop=1;jettySize=auto;html=1;exitX=0.5;exitY=1;exitDx=0;exitDy=0;entryX=0.25;entryY=0;entryDx=0;entryDy=0;" edge="1" parent="1" source="4N4hlpwrFXcGlDAMAMJo-77" target="4N4hlpwrFXcGlDAMAMJo-10">
          <mxGeometry relative="1" as="geometry" />
        </mxCell>
        <mxCell id="4N4hlpwrFXcGlDAMAMJo-77" value="TAKES" style="rhombus;whiteSpace=wrap;html=1;" vertex="1" parent="1">
          <mxGeometry x="360" y="320" width="110" height="120" as="geometry" />
        </mxCell>
        <mxCell id="4N4hlpwrFXcGlDAMAMJo-80" value="1" style="text;html=1;strokeColor=none;fillColor=none;align=center;verticalAlign=middle;whiteSpace=wrap;rounded=0;" vertex="1" parent="1">
          <mxGeometry x="330" y="220" width="60" height="30" as="geometry" />
        </mxCell>
        <mxCell id="4N4hlpwrFXcGlDAMAMJo-81" value="1" style="text;html=1;strokeColor=none;fillColor=none;align=center;verticalAlign=middle;whiteSpace=wrap;rounded=0;" vertex="1" parent="1">
          <mxGeometry x="390" y="470" width="20" height="30" as="geometry" />
        </mxCell>
        <mxCell id="4N4hlpwrFXcGlDAMAMJo-85" style="edgeStyle=orthogonalEdgeStyle;rounded=0;orthogonalLoop=1;jettySize=auto;html=1;exitX=0.5;exitY=1;exitDx=0;exitDy=0;entryX=0.75;entryY=0;entryDx=0;entryDy=0;" edge="1" parent="1" source="4N4hlpwrFXcGlDAMAMJo-83" target="4N4hlpwrFXcGlDAMAMJo-10">
          <mxGeometry relative="1" as="geometry" />
        </mxCell>
        <mxCell id="4N4hlpwrFXcGlDAMAMJo-83" value="TEACHES" style="rhombus;whiteSpace=wrap;html=1;" vertex="1" parent="1">
          <mxGeometry x="590" y="430" width="80" height="80" as="geometry" />
        </mxCell>
        <mxCell id="4N4hlpwrFXcGlDAMAMJo-88" value="1" style="text;html=1;strokeColor=none;fillColor=none;align=center;verticalAlign=middle;whiteSpace=wrap;rounded=0;" vertex="1" parent="1">
          <mxGeometry x="670" y="290" width="20" height="30" as="geometry" />
        </mxCell>
        <mxCell id="4N4hlpwrFXcGlDAMAMJo-89" value="M" style="text;html=1;strokeColor=none;fillColor=none;align=center;verticalAlign=middle;whiteSpace=wrap;rounded=0;" vertex="1" parent="1">
          <mxGeometry x="610" y="535" width="15" height="30" as="geometry" />
        </mxCell>
        <mxCell id="4N4hlpwrFXcGlDAMAMJo-93" style="edgeStyle=orthogonalEdgeStyle;rounded=0;orthogonalLoop=1;jettySize=auto;html=1;exitX=0.5;exitY=1;exitDx=0;exitDy=0;entryX=0.5;entryY=0;entryDx=0;entryDy=0;" edge="1" parent="1" source="4N4hlpwrFXcGlDAMAMJo-91" target="4N4hlpwrFXcGlDAMAMJo-12">
          <mxGeometry relative="1" as="geometry" />
        </mxCell>
        <mxCell id="4N4hlpwrFXcGlDAMAMJo-91" value="TAKES" style="rhombus;whiteSpace=wrap;html=1;" vertex="1" parent="1">
          <mxGeometry x="490" y="820" width="80" height="80" as="geometry" />
        </mxCell>
        <mxCell id="4N4hlpwrFXcGlDAMAMJo-94" value="1" style="text;html=1;strokeColor=none;fillColor=none;align=center;verticalAlign=middle;whiteSpace=wrap;rounded=0;" vertex="1" parent="1">
          <mxGeometry x="490" y="750" width="60" height="30" as="geometry" />
        </mxCell>
        <mxCell id="4N4hlpwrFXcGlDAMAMJo-95" value="MANY" style="text;html=1;strokeColor=none;fillColor=none;align=center;verticalAlign=middle;whiteSpace=wrap;rounded=0;" vertex="1" parent="1">
          <mxGeometry x="520" y="960" width="60" height="30" as="geometry" />
        </mxCell>
        <mxCell id="4N4hlpwrFXcGlDAMAMJo-98" style="edgeStyle=orthogonalEdgeStyle;rounded=0;orthogonalLoop=1;jettySize=auto;html=1;exitX=0;exitY=0.5;exitDx=0;exitDy=0;entryX=1;entryY=0.25;entryDx=0;entryDy=0;" edge="1" parent="1" source="4N4hlpwrFXcGlDAMAMJo-96" target="4N4hlpwrFXcGlDAMAMJo-2">
          <mxGeometry relative="1" as="geometry" />
        </mxCell>
        <mxCell id="4N4hlpwrFXcGlDAMAMJo-100" value="" style="edgeStyle=orthogonalEdgeStyle;rounded=0;orthogonalLoop=1;jettySize=auto;html=1;" edge="1" parent="1" source="4N4hlpwrFXcGlDAMAMJo-96" target="4N4hlpwrFXcGlDAMAMJo-77">
          <mxGeometry relative="1" as="geometry" />
        </mxCell>
        <mxCell id="4N4hlpwrFXcGlDAMAMJo-96" value="TEACHES" style="rhombus;whiteSpace=wrap;html=1;" vertex="1" parent="1">
          <mxGeometry x="425" y="130" width="80" height="80" as="geometry" />
        </mxCell>
        <mxCell id="4N4hlpwrFXcGlDAMAMJo-101" value="1" style="text;html=1;strokeColor=none;fillColor=none;align=center;verticalAlign=middle;whiteSpace=wrap;rounded=0;" vertex="1" parent="1">
          <mxGeometry x="520" y="150" width="60" height="30" as="geometry" />
        </mxCell>
        <mxCell id="4N4hlpwrFXcGlDAMAMJo-102" value="MANY" style="text;html=1;strokeColor=none;fillColor=none;align=center;verticalAlign=middle;whiteSpace=wrap;rounded=0;" vertex="1" parent="1">
          <mxGeometry x="320" y="150" width="60" height="30" as="geometry" />
        </mxCell>
      </root>
    </mxGraphModel>
  </diagram>
</mxfile>
